<svg width="21" height="20" viewBox="0 0 21 20" fill="none" xmlns="http://www.w3.org/2000/svg">
<path fill-rule="evenodd" clip-rule="evenodd" d="M9.58199 1.82919C9.95918 1.6878 10.3748 1.6878 10.752 1.82919L16.5853 4.01669C16.9031 4.1358 17.1769 4.34906 17.3702 4.62798C17.5635 4.9069 17.667 5.23817 17.667 5.57752V10.0467C17.667 11.4395 17.2792 12.8049 16.5469 13.9897C15.8147 15.1746 14.767 16.1321 13.5212 16.755L10.7262 18.1517C10.5526 18.2385 10.3611 18.2837 10.167 18.2837C9.97288 18.2837 9.78143 18.2385 9.60783 18.1517L6.81283 16.7542C5.56702 16.1313 4.5193 15.1737 3.78705 13.9889C3.0548 12.8041 2.66696 11.4387 2.66699 10.0459V5.57835C2.66678 5.23886 2.77025 4.90741 2.96355 4.62832C3.15685 4.34924 3.43077 4.13585 3.74866 4.01669L9.58199 1.82919V1.82919ZM11.0003 9.77669C11.318 9.59323 11.5663 9.31007 11.7067 8.97112C11.8471 8.63216 11.8717 8.25636 11.7768 7.90198C11.6818 7.54761 11.4726 7.23446 11.1815 7.01112C10.8905 6.78777 10.5339 6.6667 10.167 6.66669C9.80012 6.6667 9.44349 6.78777 9.15244 7.01112C8.86138 7.23446 8.65215 7.54761 8.55719 7.90198C8.46224 8.25636 8.48686 8.63216 8.62725 8.97112C8.76764 9.31007 9.01594 9.59323 9.33366 9.77669V12.5C9.33366 12.721 9.42146 12.933 9.57774 13.0893C9.73402 13.2456 9.94598 13.3334 10.167 13.3334C10.388 13.3334 10.6 13.2456 10.7562 13.0893C10.9125 12.933 11.0003 12.721 11.0003 12.5V9.77669Z" fill="#27C653"/>
</svg>
