<svg width="20" height="20" viewBox="0 0 20 20" fill="none" xmlns="http://www.w3.org/2000/svg">
<g clip-path="url(#clip0_4476_244264)">
<path fill-rule="evenodd" clip-rule="evenodd" d="M19.2106 0.796447C19.4736 1.06207 19.5665 1.4522 19.4515 1.80785L13.9515 18.8078C13.8279 19.1896 13.4881 19.4606 13.0884 19.4961C12.6887 19.5316 12.3065 19.3247 12.1177 18.9706L8.25598 11.73L1.01263 7.68693C0.663694 7.49216 0.464212 7.10835 0.505328 6.71086C0.546445 6.31336 0.820265 5.97851 1.20168 5.85929L18.2017 0.545566C18.5585 0.434049 18.9476 0.530821 19.2106 0.796447ZM10.2311 11.1832L12.7737 15.9508L16.27 5.14431L10.2311 11.1832ZM14.9187 3.66717L4.0185 7.07425L8.82739 9.75844L14.9187 3.66717Z" fill="#221A11"/>
</g>
<defs>
<clipPath id="clip0_4476_244264">
<rect width="20" height="20" fill="white"/>
</clipPath>
</defs>
</svg>
